<svg width="108" height="25" viewBox="0 0 108 25" fill="none" xmlns="http://www.w3.org/2000/svg">
<path d="M27.0356 0C23.9467 0 21.5321 2.32166 19.3463 5.27089C16.3427 1.45429 13.8307 0 10.8246 0C4.69583 0 0 7.95957 0 16.3843C0 21.6562 2.55575 24.9813 6.83658 24.9813C9.91764 24.9813 12.1335 23.5318 16.0729 16.66C16.0729 16.66 17.715 13.7661 18.8446 11.7726C19.2405 12.4105 19.6574 13.0977 20.0954 13.8345L21.9426 16.9356C25.5411 22.9448 27.546 24.9813 31.1789 24.9813C35.3493 24.9813 37.6702 21.6108 37.6702 16.2292C37.6702 7.40825 32.8685 0 27.0356 0ZM13.0689 14.7993C9.87505 19.7955 8.77015 20.9154 6.99195 20.9154C5.16196 20.9154 4.07432 19.3121 4.07432 16.4532C4.07432 10.3371 7.13007 4.08315 10.7728 4.08315C12.7454 4.08315 14.3939 5.22006 16.9189 8.82744C14.5213 12.4975 13.0689 14.7993 13.0689 14.7993ZM25.123 14.1703L22.9143 10.4943C22.3166 9.52427 21.7422 8.63135 21.1911 7.8156C23.1817 4.74951 24.8237 3.22174 26.7766 3.22174C30.8336 3.22174 34.0793 9.1828 34.0793 16.5049C34.0793 19.2959 33.1632 20.9154 31.2652 20.9154C29.4461 20.9154 28.577 19.7164 25.123 14.1703Z" fill="#D2D4D7" fill-opacity="0.8"/>
<path d="M43.1665 2.63251H47.0069L53.537 14.4206L60.067 2.63252H63.8243V22.0026H60.691V7.15687L54.965 17.4368H52.0258L46.2998 7.15687V22.0026H43.1665V2.63251Z" fill="#D2D4D7" fill-opacity="0.8"/>
<path d="M73.9312 22.3485C72.48 22.3485 71.2044 22.028 70.1046 21.3869C69.0046 20.7459 68.1474 19.8581 67.5328 18.7235C66.9181 17.589 66.6107 16.2884 66.6108 14.8219C66.6108 13.3369 66.9112 12.0225 67.512 10.8787C68.1128 9.73507 68.947 8.84033 70.0145 8.19443C71.0821 7.54896 72.3091 7.22613 73.6955 7.22595C75.0726 7.22595 76.258 7.55108 77.2517 8.20133C78.2451 8.85175 79.01 9.76263 79.5462 10.934C80.0822 12.1055 80.3502 13.4798 80.3504 15.0571V15.9147H69.7164C69.9106 17.0956 70.3889 18.0249 71.1514 18.7027C71.914 19.3807 72.8775 19.7196 74.0421 19.7196C74.9756 19.7196 75.7797 19.5812 76.4545 19.3045C77.1291 19.0278 77.7623 18.6082 78.354 18.0456L80.0176 20.0793C78.363 21.5922 76.3342 22.3486 73.9312 22.3485ZM76.2188 10.8578C75.5625 10.1892 74.7029 9.85481 73.6401 9.85469C72.6048 9.85469 71.7383 10.196 71.0405 10.8787C70.3425 11.5612 69.9012 12.479 69.7164 13.632H77.3419C77.2493 12.4513 76.875 11.5266 76.2188 10.8578Z" fill="#D2D4D7" fill-opacity="0.8"/>
<path d="M84.149 10.1317H81.2651V7.57208H84.149V3.33838H87.1713V7.57208H91.5524V10.1317H87.1713V16.6206C87.1713 17.6997 87.3562 18.4699 87.7259 18.9311C88.0954 19.3925 88.7286 19.6231 89.6254 19.6229C90.0226 19.6229 90.36 19.6068 90.6375 19.5745C90.9147 19.5423 91.2197 19.4985 91.5524 19.443V21.975C91.1728 22.0846 90.786 22.1678 90.3948 22.2241C89.9472 22.2898 89.4954 22.3222 89.043 22.3209C85.7802 22.3209 84.1488 20.5408 84.149 16.9804V10.1317Z" fill="#D2D4D7" fill-opacity="0.8"/>
<path d="M107.303 22.0027H104.336V19.9827C103.809 20.7391 103.139 21.3225 102.326 21.7329C101.512 22.1432 100.588 22.3485 99.5529 22.3487C98.2775 22.3487 97.1475 22.0235 96.1631 21.3732C95.1787 20.7229 94.4047 19.8282 93.8409 18.6891C93.277 17.5499 92.9951 16.2471 92.9951 14.7805C92.9951 13.3047 93.2817 11.9995 93.8548 10.8649C94.4277 9.73048 95.2203 8.84039 96.2325 8.19462C97.2446 7.54914 98.4068 7.22631 99.7193 7.22614C100.708 7.22614 101.596 7.41756 102.381 7.80041C103.156 8.17455 103.828 8.73274 104.336 9.42603V7.57211H107.303V22.0027ZM104.281 12.6221C103.957 11.8012 103.446 11.1532 102.749 10.6781C102.051 10.2031 101.244 9.96566 100.329 9.96566C99.0352 9.96566 98.0046 10.3992 97.2376 11.2662C96.4703 12.1332 96.0868 13.3047 96.0869 14.7805C96.0869 16.2657 96.4566 17.4417 97.196 18.3087C97.9354 19.1757 98.9382 19.6092 100.205 19.6092C101.138 19.6092 101.97 19.3693 102.7 18.8896C103.43 18.4103 103.957 17.7646 104.281 16.9527V12.6221Z" fill="#D2D4D7" fill-opacity="0.8"/>
</svg>
